<mxfile host="app.diagrams.net" modified="2023-12-27T12:07:31.896Z" agent="Mozilla/5.0 (Windows NT 10.0; Win64; x64) AppleWebKit/537.36 (KHTML, like Gecko) Chrome/120.0.0.0 Safari/537.36" version="22.1.12" etag="YWbwdHCfPfT0S6AtsC6y" type="github">
  <diagram name="第 1 页" id="uxqas2w9BxiFX2qmPFni">
    <mxGraphModel>
      <root>
        <mxCell id="0" />
        <mxCell id="1" parent="0" />
      </root>
    </mxGraphModel>
  </diagram>
</mxfile>
